<svg width="16" height="16" viewBox="0 0 16 16" fill="none" xmlns="http://www.w3.org/2000/svg">
<path d="M8.70741 0.293C8.51988 0.105529 8.26557 0.000213623 8.00041 0.000213623C7.73524 0.000213623 7.48094 0.105529 7.29341 0.293L0.293407 7.293C0.111249 7.4816 0.0104547 7.7342 0.0127331 7.9964C0.0150115 8.2586 0.120181 8.50941 0.305589 8.69482C0.490997 8.88023 0.741809 8.98539 1.00401 8.98767C1.2662 8.98995 1.51881 8.88916 1.70741 8.707L2.00041 8.414V15C2.00041 15.2652 2.10576 15.5196 2.2933 15.7071C2.48084 15.8946 2.73519 16 3.00041 16H5.00041C5.26562 16 5.51998 15.8946 5.70751 15.7071C5.89505 15.5196 6.00041 15.2652 6.00041 15V13C6.00041 12.7348 6.10576 12.4804 6.2933 12.2929C6.48084 12.1054 6.73519 12 7.00041 12H9.00041C9.26562 12 9.51998 12.1054 9.70751 12.2929C9.89505 12.4804 10.0004 12.7348 10.0004 13V15C10.0004 15.2652 10.1058 15.5196 10.2933 15.7071C10.4808 15.8946 10.7352 16 11.0004 16H13.0004C13.2656 16 13.52 15.8946 13.7075 15.7071C13.8951 15.5196 14.0004 15.2652 14.0004 15V8.414L14.2934 8.707C14.482 8.88916 14.7346 8.98995 14.9968 8.98767C15.259 8.98539 15.5098 8.88023 15.6952 8.69482C15.8806 8.50941 15.9858 8.2586 15.9881 7.9964C15.9904 7.7342 15.8896 7.4816 15.7074 7.293L8.70741 0.293V0.293Z" fill="#FBFBFB"/>
</svg>
