<svg width="108" height="21" viewBox="0 0 108 21" fill="none" xmlns="http://www.w3.org/2000/svg">
<path d="M15.56 20H11.456L4.592 9.608V20H0.488V3.152H4.592L11.456 13.592V3.152H15.56V20ZM18.2189 13.28C18.2189 11.904 18.4749 10.696 18.9869 9.656C19.5149 8.616 20.2269 7.816 21.1229 7.256C22.0189 6.696 23.0189 6.416 24.1229 6.416C25.0669 6.416 25.8909 6.608 26.5949 6.992C27.3149 7.376 27.8669 7.88 28.2509 8.504V6.608H32.3549V20H28.2509V18.104C27.8509 18.728 27.2909 19.232 26.5709 19.616C25.8669 20 25.0429 20.192 24.0989 20.192C23.0109 20.192 22.0189 19.912 21.1229 19.352C20.2269 18.776 19.5149 17.968 18.9869 16.928C18.4749 15.872 18.2189 14.656 18.2189 13.28ZM28.2509 13.304C28.2509 12.28 27.9629 11.472 27.3869 10.88C26.8269 10.288 26.1389 9.992 25.3229 9.992C24.5069 9.992 23.8109 10.288 23.2349 10.88C22.6749 11.456 22.3949 12.256 22.3949 13.28C22.3949 14.304 22.6749 15.12 23.2349 15.728C23.8109 16.32 24.5069 16.616 25.3229 16.616C26.1389 16.616 26.8269 16.32 27.3869 15.728C27.9629 15.136 28.2509 14.328 28.2509 13.304ZM49.0479 6.608V20H44.9439V18.176C44.5279 18.768 43.9599 19.248 43.2399 19.616C42.5359 19.968 41.7519 20.144 40.8879 20.144C39.8639 20.144 38.9599 19.92 38.1759 19.472C37.3919 19.008 36.7839 18.344 36.3519 17.48C35.9199 16.616 35.7039 15.6 35.7039 14.432V6.608H39.7839V13.88C39.7839 14.776 40.0159 15.472 40.4799 15.968C40.9439 16.464 41.5679 16.712 42.3519 16.712C43.1519 16.712 43.7839 16.464 44.2479 15.968C44.7119 15.472 44.9439 14.776 44.9439 13.88V6.608H49.0479ZM59.2158 10.016H57.0078V20H52.9038V10.016H51.4158V6.608H52.9038V6.224C52.9038 4.576 53.3758 3.328 54.3198 2.48C55.2638 1.616 56.6478 1.184 58.4718 1.184C58.7758 1.184 58.9998 1.192 59.1438 1.208V4.688C58.3598 4.64 57.8078 4.752 57.4878 5.024C57.1678 5.296 57.0078 5.784 57.0078 6.488V6.608H59.2158V10.016ZM60.8283 13.28C60.8283 11.904 61.0843 10.696 61.5963 9.656C62.1243 8.616 62.8363 7.816 63.7323 7.256C64.6283 6.696 65.6283 6.416 66.7323 6.416C67.6763 6.416 68.5003 6.608 69.2043 6.992C69.9243 7.376 70.4763 7.88 70.8603 8.504V6.608H74.9643V20H70.8603V18.104C70.4603 18.728 69.9003 19.232 69.1803 19.616C68.4763 20 67.6523 20.192 66.7083 20.192C65.6203 20.192 64.6283 19.912 63.7323 19.352C62.8363 18.776 62.1243 17.968 61.5963 16.928C61.0843 15.872 60.8283 14.656 60.8283 13.28ZM70.8603 13.304C70.8603 12.28 70.5723 11.472 69.9963 10.88C69.4363 10.288 68.7483 9.992 67.9323 9.992C67.1163 9.992 66.4203 10.288 65.8443 10.88C65.2843 11.456 65.0043 12.256 65.0043 13.28C65.0043 14.304 65.2843 15.12 65.8443 15.728C66.4203 16.32 67.1163 16.616 67.9323 16.616C68.7483 16.616 69.4363 16.32 69.9963 15.728C70.5723 15.136 70.8603 14.328 70.8603 13.304ZM82.5373 2.24V20H78.4333V2.24H82.5373ZM85.1954 13.28C85.1954 11.904 85.4514 10.696 85.9634 9.656C86.4914 8.616 87.2034 7.816 88.0994 7.256C88.9954 6.696 89.9954 6.416 91.0994 6.416C91.9794 6.416 92.7794 6.6 93.4994 6.968C94.2354 7.336 94.8114 7.832 95.2274 8.456V2.24H99.3314V20H95.2274V18.08C94.8434 18.72 94.2914 19.232 93.5714 19.616C92.8674 20 92.0434 20.192 91.0994 20.192C89.9954 20.192 88.9954 19.912 88.0994 19.352C87.2034 18.776 86.4914 17.968 85.9634 16.928C85.4514 15.872 85.1954 14.656 85.1954 13.28ZM95.2274 13.304C95.2274 12.28 94.9394 11.472 94.3634 10.88C93.8034 10.288 93.1154 9.992 92.2994 9.992C91.4834 9.992 90.7874 10.288 90.2114 10.88C89.6514 11.456 89.3714 12.256 89.3714 13.28C89.3714 14.304 89.6514 15.12 90.2114 15.728C90.7874 16.32 91.4834 16.616 92.2994 16.616C93.1154 16.616 93.8034 16.32 94.3634 15.728C94.9394 15.136 95.2274 14.328 95.2274 13.304ZM104.865 5.216C104.145 5.216 103.553 5.008 103.089 4.592C102.641 4.16 102.417 3.632 102.417 3.008C102.417 2.368 102.641 1.84 103.089 1.424C103.553 0.991999 104.145 0.775999 104.865 0.775999C105.569 0.775999 106.145 0.991999 106.593 1.424C107.057 1.84 107.289 2.368 107.289 3.008C107.289 3.632 107.057 4.16 106.593 4.592C106.145 5.008 105.569 5.216 104.865 5.216ZM106.905 6.608V20H102.801V6.608H106.905Z" fill="white"/>
</svg>
