<svg width="14" height="18" viewBox="0 0 14 18" fill="none" xmlns="http://www.w3.org/2000/svg">
<path d="M4.50033 10.6667L6.16699 12.3333L9.50033 9M4.50033 3.16667H2.83366C2.39163 3.16667 1.96771 3.34226 1.65515 3.65482C1.34259 3.96738 1.16699 4.39131 1.16699 4.83333V14.8333C1.16699 15.2754 1.34259 15.6993 1.65515 16.0118C1.96771 16.3244 2.39163 16.5 2.83366 16.5H11.167C11.609 16.5 12.0329 16.3244 12.3455 16.0118C12.6581 15.6993 12.8337 15.2754 12.8337 14.8333V4.83333C12.8337 4.39131 12.6581 3.96738 12.3455 3.65482C12.0329 3.34226 11.609 3.16667 11.167 3.16667H9.50033H4.50033ZM4.50033 3.16667C4.50033 3.60869 4.67592 4.03262 4.98848 4.34518C5.30104 4.65774 5.72497 4.83333 6.16699 4.83333H7.83366C8.27569 4.83333 8.69961 4.65774 9.01217 4.34518C9.32473 4.03262 9.50033 3.60869 9.50033 3.16667H4.50033ZM4.50033 3.16667C4.50033 2.72464 4.67592 2.30072 4.98848 1.98816C5.30104 1.67559 5.72497 1.5 6.16699 1.5H7.83366C8.27569 1.5 8.69961 1.67559 9.01217 1.98816C9.32473 2.30072 9.50033 2.72464 9.50033 3.16667H4.50033Z" stroke="#FBFBFB" stroke-width="2" stroke-linecap="round" stroke-linejoin="round"/>
</svg>
