<svg width="4" height="16" viewBox="0 0 4 16" fill="none" xmlns="http://www.w3.org/2000/svg">
<path d="M2.00033 2.16666V2.175V2.16666ZM2.00033 7.99999V8.00833V7.99999ZM2.00033 13.8333V13.8417V13.8333ZM2.00033 2.99999C1.77931 2.99999 1.56735 2.9122 1.41107 2.75592C1.25479 2.59964 1.16699 2.38768 1.16699 2.16666C1.16699 1.94565 1.25479 1.73369 1.41107 1.57741C1.56735 1.42113 1.77931 1.33333 2.00033 1.33333C2.22134 1.33333 2.4333 1.42113 2.58958 1.57741C2.74586 1.73369 2.83366 1.94565 2.83366 2.16666C2.83366 2.38768 2.74586 2.59964 2.58958 2.75592C2.4333 2.9122 2.22134 2.99999 2.00033 2.99999ZM2.00033 8.83333C1.77931 8.83333 1.56735 8.74553 1.41107 8.58925C1.25479 8.43297 1.16699 8.22101 1.16699 7.99999C1.16699 7.77898 1.25479 7.56702 1.41107 7.41074C1.56735 7.25446 1.77931 7.16666 2.00033 7.16666C2.22134 7.16666 2.4333 7.25446 2.58958 7.41074C2.74586 7.56702 2.83366 7.77898 2.83366 7.99999C2.83366 8.22101 2.74586 8.43297 2.58958 8.58925C2.4333 8.74553 2.22134 8.83333 2.00033 8.83333ZM2.00033 14.6667C1.77931 14.6667 1.56735 14.5789 1.41107 14.4226C1.25479 14.2663 1.16699 14.0543 1.16699 13.8333C1.16699 13.6123 1.25479 13.4004 1.41107 13.2441C1.56735 13.0878 1.77931 13 2.00033 13C2.22134 13 2.4333 13.0878 2.58958 13.2441C2.74586 13.4004 2.83366 13.6123 2.83366 13.8333C2.83366 14.0543 2.74586 14.2663 2.58958 14.4226C2.4333 14.5789 2.22134 14.6667 2.00033 14.6667Z" stroke="#FBFBFB" stroke-width="2" stroke-linecap="round" stroke-linejoin="round"/>
</svg>
