<svg width="18" height="16" viewBox="0 0 18 16" fill="none" xmlns="http://www.w3.org/2000/svg">
<path d="M7.33333 7.99999H10.6667M3.16667 4.66666H14.8333H3.16667ZM3.16667 4.66666C2.72464 4.66666 2.30072 4.49107 1.98816 4.17851C1.67559 3.86595 1.5 3.44202 1.5 2.99999C1.5 2.55797 1.67559 2.13404 1.98816 1.82148C2.30072 1.50892 2.72464 1.33333 3.16667 1.33333H14.8333C15.2754 1.33333 15.6993 1.50892 16.0118 1.82148C16.3244 2.13404 16.5 2.55797 16.5 2.99999C16.5 3.44202 16.3244 3.86595 16.0118 4.17851C15.6993 4.49107 15.2754 4.66666 14.8333 4.66666H3.16667ZM3.16667 4.66666V13C3.16667 13.442 3.34226 13.8659 3.65482 14.1785C3.96738 14.4911 4.39131 14.6667 4.83333 14.6667H13.1667C13.6087 14.6667 14.0326 14.4911 14.3452 14.1785C14.6577 13.8659 14.8333 13.442 14.8333 13V4.66666H3.16667Z" stroke="#FBFBFB" stroke-width="2" stroke-linecap="round" stroke-linejoin="round"/>
</svg>
