<svg width="177" height="136" viewBox="0 0 177 136" fill="none" xmlns="http://www.w3.org/2000/svg">
<path fill-rule="evenodd" clip-rule="evenodd" d="M96.9166 43.8337C98.749 39.642 99.0008 34.9597 97.0277 29.9006C90.9234 14.251 77.7785 8.85378 62.7929 9.28034C40.9114 9.90392 15.0728 23.1297 2.6086 34.0217C2.01767 34.5369 1.95948 35.4332 2.47435 36.0205C2.98954 36.6115 3.88604 36.6731 4.47697 36.1579C16.5739 25.5854 41.6393 12.722 62.8755 12.1153C76.6353 11.7241 88.7788 16.5585 94.3836 30.9331C96.0547 35.2101 95.8289 39.1608 94.2887 42.7089C91.9546 41.7381 89.6236 40.846 87.2999 40.0359C80.8848 37.8014 63.3847 35.1531 50.9183 37.8027C41.9761 39.7057 35.6285 44.3246 36.6346 53.1188C37.195 58.0067 40.5574 61.2842 45.6037 63.0275C52.54 65.4284 62.7962 64.8692 72.4115 61.912C80.4174 59.4513 87.9664 55.3419 92.8085 50.0246C93.8703 48.8538 94.8088 47.629 95.5952 46.3494C127.713 60.4284 159.098 89.0555 173.982 119.97C174.324 120.673 175.169 120.973 175.876 120.631C176.583 120.292 176.879 119.443 176.54 118.74C161.411 87.3224 129.564 58.215 96.9166 43.8337ZM92.9417 45.2196C90.746 44.3121 88.5529 43.4763 86.3665 42.7154C80.2184 40.5761 63.4538 38.0394 51.5095 40.5786C44.1792 42.1359 38.628 45.5894 39.4523 52.797C39.8875 56.582 42.6244 58.9943 46.53 60.3487C50.8279 61.8341 56.4916 62.0503 62.4386 61.232C71.4672 59.9897 81.1451 56.3516 87.7447 50.9166C89.8363 49.1958 91.6136 47.2904 92.9417 45.2196Z" fill="url(#paint0_linear_814_612)"/>
<path fill-rule="evenodd" clip-rule="evenodd" d="M125.516 98.7518C142.382 100.144 161.025 109.459 174.301 120.094C174.912 120.583 175.805 120.483 176.294 119.873C176.783 119.262 176.687 118.369 176.077 117.88C162.387 106.911 143.137 97.3618 125.75 95.9251C124.972 95.8602 124.286 96.4412 124.222 97.223C124.157 98.0012 124.738 98.6869 125.516 98.7518Z" fill="#FBFBFB"/>
<path fill-rule="evenodd" clip-rule="evenodd" d="M176.36 117.671C168.333 106.092 165.736 87.4801 168.07 73.543C168.2 72.7699 167.68 72.0356 166.907 71.9092C166.134 71.7792 165.403 72.2993 165.273 73.0725C162.828 87.6732 165.62 107.155 174.029 119.287C174.473 119.931 175.36 120.09 176.004 119.646C176.648 119.198 176.808 118.315 176.36 117.671Z" fill="#FBFBFB"/>
<defs>
<linearGradient id="paint0_linear_814_612" x1="171.529" y1="60.3858" x2="-28.999" y2="44" gradientUnits="userSpaceOnUse">
<stop stop-color="#FBFBFB"/>
<stop offset="1" stop-color="#FBFBFB" stop-opacity="0"/>
</linearGradient>
</defs>
</svg>
