<svg width="31" height="31" viewBox="0 0 31 31" fill="none" xmlns="http://www.w3.org/2000/svg">
<path d="M29.375 29.375L20.125 20.125L29.375 29.375ZM23.2083 12.4167C23.2083 13.8338 22.9292 15.2372 22.3869 16.5465C21.8445 17.8558 21.0496 19.0454 20.0475 20.0475C19.0454 21.0496 17.8558 21.8445 16.5465 22.3869C15.2372 22.9292 13.8338 23.2083 12.4167 23.2083C10.9995 23.2083 9.59618 22.9292 8.28687 22.3869C6.97757 21.8445 5.7879 21.0496 4.78581 20.0475C3.78371 19.0454 2.9888 17.8558 2.44647 16.5465C1.90413 15.2372 1.625 13.8338 1.625 12.4167C1.625 9.55454 2.76198 6.80964 4.78581 4.78581C6.80964 2.76198 9.55454 1.625 12.4167 1.625C15.2788 1.625 18.0237 2.76198 20.0475 4.78581C22.0714 6.80964 23.2083 9.55454 23.2083 12.4167Z" stroke="#FBFBFB" stroke-width="2" stroke-linecap="round" stroke-linejoin="round"/>
</svg>
