<svg width="36" height="37" fill="none" xmlns="http://www.w3.org/2000/svg"><path fill-rule="evenodd" clip-rule="evenodd" d="M18 33.3c3.819 0 7.481-1.56 10.182-4.335 2.7-2.775 4.218-6.54 4.218-10.465s-1.517-7.69-4.218-10.465C25.482 5.259 21.819 3.7 18 3.7c-3.82 0-7.482 1.56-10.183 4.335C5.117 10.811 3.6 14.575 3.6 18.5s1.517 7.69 4.217 10.465C10.517 31.741 14.181 33.3 18 33.3zM7.797 14.85a11.124 11.124 0 013.442-5.006 2.68 2.68 0 002.26 1.256c.717 0 1.403.293 1.91.813.506.52.79 1.226.79 1.962v.925c0 .981.38 1.923 1.055 2.616A3.551 3.551 0 0019.8 18.5c.954 0 1.87-.39 2.545-1.084A3.753 3.753 0 0023.4 14.8c0-.828.27-1.632.766-2.284a3.592 3.592 0 011.975-1.31A11.238 11.238 0 0128.8 18.5c0 .63-.05 1.249-.15 1.85H27c-.955 0-1.87.39-2.546 1.084A3.753 3.753 0 0023.4 24.05v4.065A10.529 10.529 0 0118 29.6v-3.7c0-.981-.38-1.922-1.055-2.616A3.551 3.551 0 0014.4 22.2c-.955 0-1.87-.39-2.546-1.084A3.753 3.753 0 0110.8 18.5c0-.875-.302-1.722-.851-2.39a3.579 3.579 0 00-2.152-1.26z" fill="#fff"/></svg>