<svg width="108" height="21" fill="none" xmlns="http://www.w3.org/2000/svg"><path d="M15.56 20h-4.104L4.592 9.608V20H.488V3.152h4.104l6.864 10.44V3.152h4.104V20zm2.659-6.72c0-1.376.256-2.584.768-3.624.528-1.04 1.24-1.84 2.136-2.4.896-.56 1.896-.84 3-.84.944 0 1.768.192 2.472.576.72.384 1.272.888 1.656 1.512V6.608h4.104V20H28.25v-1.896c-.4.624-.96 1.128-1.68 1.512-.704.384-1.528.576-2.472.576-1.088 0-2.08-.28-2.976-.84-.896-.576-1.608-1.384-2.136-2.424-.512-1.056-.768-2.272-.768-3.648zm10.032.024c0-1.024-.288-1.832-.864-2.424a2.73 2.73 0 00-2.064-.888c-.816 0-1.512.296-2.088.888-.56.576-.84 1.376-.84 2.4s.28 1.84.84 2.448c.576.592 1.272.888 2.088.888a2.73 2.73 0 002.064-.888c.576-.592.864-1.4.864-2.424zm20.797-6.696V20h-4.104v-1.824c-.416.592-.984 1.072-1.704 1.44-.704.352-1.488.528-2.352.528-1.024 0-1.928-.224-2.712-.672-.784-.464-1.392-1.128-1.824-1.992-.432-.864-.648-1.88-.648-3.048V6.608h4.08v7.272c0 .896.232 1.592.696 2.088.464.496 1.088.744 1.872.744.8 0 1.432-.248 1.896-.744.464-.496.696-1.192.696-2.088V6.608h4.104zm10.168 3.408h-2.208V20h-4.104v-9.984h-1.488V6.608h1.488v-.384c0-1.648.472-2.896 1.416-3.744.944-.864 2.328-1.296 4.152-1.296.304 0 .528.008.672.024v3.48c-.784-.048-1.336.064-1.656.336-.32.272-.48.76-.48 1.464v.12h2.208v3.408zm1.612 3.264c0-1.376.256-2.584.768-3.624.528-1.04 1.24-1.84 2.136-2.4.896-.56 1.896-.84 3-.84.944 0 1.768.192 2.472.576.72.384 1.272.888 1.656 1.512V6.608h4.104V20H70.86v-1.896c-.4.624-.96 1.128-1.68 1.512-.704.384-1.528.576-2.472.576-1.088 0-2.08-.28-2.976-.84-.896-.576-1.608-1.384-2.136-2.424-.512-1.056-.768-2.272-.768-3.648zm10.032.024c0-1.024-.288-1.832-.864-2.424a2.73 2.73 0 00-2.064-.888c-.816 0-1.512.296-2.088.888-.56.576-.84 1.376-.84 2.4s.28 1.84.84 2.448c.576.592 1.272.888 2.088.888a2.73 2.73 0 002.064-.888c.576-.592.864-1.4.864-2.424zM82.537 2.24V20h-4.104V2.24h4.104zm2.658 11.04c0-1.376.256-2.584.768-3.624.528-1.04 1.24-1.84 2.136-2.4.896-.56 1.896-.84 3-.84.88 0 1.68.184 2.4.552.736.368 1.312.864 1.728 1.488V2.24h4.104V20h-4.104v-1.92c-.384.64-.936 1.152-1.656 1.536-.704.384-1.528.576-2.472.576-1.104 0-2.104-.28-3-.84-.896-.576-1.608-1.384-2.136-2.424-.512-1.056-.768-2.272-.768-3.648zm10.032.024c0-1.024-.288-1.832-.864-2.424a2.73 2.73 0 00-2.064-.888c-.816 0-1.512.296-2.088.888-.56.576-.84 1.376-.84 2.4s.28 1.84.84 2.448c.576.592 1.272.888 2.088.888a2.73 2.73 0 002.064-.888c.576-.592.864-1.4.864-2.424zm9.638-8.088c-.72 0-1.312-.208-1.776-.624a2.116 2.116 0 01-.672-1.584c0-.64.224-1.168.672-1.584.464-.432 1.056-.648 1.776-.648.704 0 1.28.216 1.728.648.464.416.696.944.696 1.584 0 .624-.232 1.152-.696 1.584-.448.416-1.024.624-1.728.624zm2.04 1.392V20h-4.104V6.608h4.104z" fill="#fff"/></svg>