<svg width="177" height="136" fill="none" xmlns="http://www.w3.org/2000/svg"><path fill-rule="evenodd" clip-rule="evenodd" d="M96.917 43.834c1.832-4.192 2.084-8.874.11-13.933C90.924 14.25 77.779 8.854 62.794 9.28 40.91 9.903 15.073 23.13 2.609 34.02a1.42 1.42 0 001.868 2.136c12.097-10.572 37.162-23.435 58.398-24.042 13.76-.39 25.904 4.443 31.509 18.818 1.67 4.277 1.445 8.228-.095 11.776a127.516 127.516 0 00-6.99-2.673c-6.414-2.235-23.914-4.883-36.38-2.233-8.943 1.903-15.29 6.522-14.284 15.316.56 4.888 3.922 8.165 8.969 9.909 6.936 2.4 17.192 1.841 26.808-1.116 8.005-2.46 15.554-6.57 20.396-11.887a24.94 24.94 0 002.787-3.676c32.118 14.08 63.503 42.706 78.387 73.621a1.42 1.42 0 002.558-1.23c-15.129-31.418-46.976-60.525-79.623-74.906zm-3.975 1.386a123.45 123.45 0 00-6.575-2.505c-6.149-2.139-22.913-4.676-34.858-2.136-7.33 1.557-12.881 5.01-12.057 12.218.436 3.785 3.172 6.197 7.078 7.552 4.298 1.485 9.962 1.701 15.909.883 9.028-1.242 18.706-4.88 25.306-10.315 2.091-1.721 3.869-3.627 5.197-5.697z" fill="url(#paint0_linear_814_612)"/><path fill-rule="evenodd" clip-rule="evenodd" d="M125.516 98.752c16.866 1.392 35.509 10.707 48.785 21.342a1.42 1.42 0 001.776-2.214c-13.69-10.969-32.94-20.518-50.327-21.955a1.417 1.417 0 00-.234 2.827z" fill="#FBFBFB"/><path fill-rule="evenodd" clip-rule="evenodd" d="M176.36 117.671c-8.027-11.579-10.624-30.19-8.29-44.128a1.417 1.417 0 10-2.797-.47c-2.445 14.6.347 34.082 8.756 46.214a1.418 1.418 0 102.331-1.616z" fill="#FBFBFB"/><defs><linearGradient id="paint0_linear_814_612" x1="171.529" y1="60.386" x2="-28.999" y2="44" gradientUnits="userSpaceOnUse"><stop stop-color="#FBFBFB"/><stop offset="1" stop-color="#FBFBFB" stop-opacity="0"/></linearGradient></defs></svg>