<svg width="32" height="32" fill="none" xmlns="http://www.w3.org/2000/svg"><g clip-path="url(#clip0_814_175)"><path d="M16 12a4 4 0 100 8 4 4 0 000-8zm0-2.667a6.667 6.667 0 110 13.334 6.667 6.667 0 010-13.334zM24.667 9a1.666 1.666 0 11-3.333 0 1.666 1.666 0 013.333 0zM16 5.333c-3.298 0-3.837.01-5.372.077-1.045.05-1.746.19-2.397.443a3.849 3.849 0 00-1.44.938 3.853 3.853 0 00-.939 1.44c-.253.653-.393 1.353-.441 2.397-.07 1.472-.077 1.986-.077 5.372 0 3.299.009 3.837.077 5.372.05 1.044.19 1.747.441 2.396.227.58.494.997.936 1.44.45.448.867.716 1.44.937.659.255 1.36.396 2.4.444 1.472.07 1.987.078 5.372.078 3.299 0 3.838-.01 5.372-.078 1.043-.05 1.746-.19 2.396-.441a3.893 3.893 0 001.44-.936c.45-.45.718-.867.939-1.44.253-.657.395-1.36.443-2.4.069-1.472.077-1.987.077-5.372 0-3.299-.01-3.838-.077-5.372-.05-1.043-.19-1.747-.443-2.398a3.88 3.88 0 00-.937-1.44 3.847 3.847 0 00-1.44-.938c-.654-.254-1.355-.394-2.398-.442-1.472-.069-1.986-.077-5.372-.077zm0-2.667c3.623 0 4.075.014 5.496.08 1.42.067 2.387.29 3.238.62a6.5 6.5 0 012.362 1.538 6.545 6.545 0 011.538 2.362c.329.85.553 1.818.62 3.238.062 1.421.08 1.873.08 5.496 0 3.622-.014 4.075-.08 5.496-.067 1.42-.291 2.387-.62 3.237a6.51 6.51 0 01-1.538 2.363 6.553 6.553 0 01-2.362 1.537c-.85.33-1.818.553-3.238.62-1.421.063-1.873.08-5.496.08-3.622 0-4.074-.013-5.496-.08-1.42-.067-2.386-.29-3.237-.62a6.52 6.52 0 01-2.363-1.537 6.539 6.539 0 01-1.537-2.363c-.33-.85-.553-1.817-.62-3.237-.063-1.421-.08-1.873-.08-5.496s.013-4.075.08-5.496c.067-1.421.29-2.387.62-3.237a6.507 6.507 0 011.537-2.363 6.53 6.53 0 012.363-1.538c.85-.33 1.816-.553 3.237-.62 1.422-.062 1.874-.08 5.496-.08z" fill="#fff"/></g><defs><clipPath id="clip0_814_175"><path fill="#fff" d="M0 0h32v32H0z"/></clipPath></defs></svg>